<mxfile host="app.diagrams.net" modified="2021-01-28T12:49:12.361Z" agent="5.0 (Macintosh; Intel Mac OS X 10_15_5) AppleWebKit/537.36 (KHTML, like Gecko) Chrome/88.0.4324.96 Safari/537.36" etag="YTggLYgghzxtkO9RpHZG" version="14.2.6" type="github">
  <diagram id="Axaw1c1yG8BHVxGf_41Q" name="Page-1">
    <mxGraphModel dx="1892" dy="1246" grid="1" gridSize="10" guides="1" tooltips="1" connect="1" arrows="1" fold="1" page="1" pageScale="1" pageWidth="2336" pageHeight="1654" math="0" shadow="0">
      <root>
        <mxCell id="0" />
        <mxCell id="1" parent="0" />
        <object label="&lt;b style=&quot;font-size: 26px;&quot;&gt;%Module%&lt;br style=&quot;font-size: 26px;&quot;&gt;&lt;/b&gt;" Module="main.py" Input_1="" Input_2="" Output_1="" Output_2="" placeholders="1" Comments="" id="fk-Ki8HbiVKFgRnxKCto-10">
          <mxCell style="rounded=1;whiteSpace=wrap;html=1;fontSize=26;fontFamily=Verdana;fillColor=#99CCFF;glass=0;shadow=0;sketch=0;strokeWidth=1;arcSize=6;" vertex="1" parent="1">
            <mxGeometry x="1000" y="760" width="200" height="120" as="geometry" />
          </mxCell>
        </object>
      </root>
    </mxGraphModel>
  </diagram>
</mxfile>
